HIERARCHY
ROOT Hips
{
	OFFSET 0.000000 0.000000 0.000000
	CHANNELS 6 Xposition Yposition Zposition Zrotation Yrotation Xrotation 
	JOINT LHipJoint
	{
		OFFSET 0.000000 0.000000 0.000000
		CHANNELS 3 Zrotation Yrotation Xrotation
		JOINT LeftUpLeg
		{
			OFFSET 1.363060 -1.794630 0.839290
			CHANNELS 3 Zrotation Yrotation Xrotation
			JOINT LeftLeg
			{
				OFFSET 2.448110 -6.726130 0.000000
				CHANNELS 3 Zrotation Yrotation Xrotation
				JOINT LeftFoot
				{
					OFFSET 2.562200 -7.039590 0.000000
					CHANNELS 3 Zrotation Yrotation Xrotation
					JOINT LeftToeBase
					{
						OFFSET 0.157640 -0.433110 2.322550
						CHANNELS 3 Zrotation Yrotation Xrotation
						End Site
						{
							OFFSET 0.000000 0.000000 0.000000
						}
					}
				}
			}
		}
	}
	JOINT RHipJoint
	{
		OFFSET 0.000000 0.000000 0.000000
		CHANNELS 3 Zrotation Yrotation Xrotation
		JOINT RightUpLeg
		{
			OFFSET -1.305520 -1.794630 0.839290
			CHANNELS 3 Zrotation Yrotation Xrotation
			JOINT RightLeg
			{
				OFFSET -2.542530 -6.985550 0.000000
				CHANNELS 3 Zrotation Yrotation Xrotation
				JOINT RightFoot
				{
					OFFSET -2.568260 -7.056230 0.000000
					CHANNELS 3 Zrotation Yrotation Xrotation
					JOINT RightToeBase
					{
						OFFSET -0.164730 -0.452590 2.363150
						CHANNELS 3 Zrotation Yrotation Xrotation
						End Site
						{
							OFFSET 0.000000 0.000000 0.000000
						}
					}
				}
			}
		}
	}
}
MOTION
Frames: 11
Frame Time: 0.008333
-1.516596 16.964454 -0.347396 20.659074 79.634113 32.570496 -9.569442 0.725030 5.361966 -8.689062 -8.337173 -33.749174 -2.887070 -0.215760 10.931909 -0.944929 -7.664803 6.756463 -1.361200 0.000001 -37.548600 9.797554 -3.689879 1.283073 7.213352 -0.970821 -0.338522 2.294000 -1.537458 24.844661 1.251488 13.194645 -5.034758 0.310800 0.000000 -37.991500
-1.371808 16.977260 -0.319597 21.998659 79.194686 33.664100 -9.553989 0.838425 5.215982 -9.496267 -7.629051 -33.244199 -2.958121 -0.173877 11.482484 -0.958329 -7.885806 6.526470 -1.379900 -0.000000 -36.764900 9.996799 -3.780191 1.266959 6.495224 -1.358791 -1.091718 2.027162 -1.782394 27.033484 1.235448 13.190035 -3.441865 0.619199 -0.000000 -42.474400
-1.230613 16.989985 -0.291808 23.097156 78.738554 34.542297 -9.533978 0.944971 5.088620 -10.201985 -7.025751 -32.706771 -3.025660 -0.143716 11.954389 -0.970356 -8.102395 6.185467 -1.382000 0.000000 -35.875900 10.195539 -3.854164 1.245038 5.810570 -1.747089 -1.982303 1.737966 -2.021326 29.352412 1.200841 13.160365 -1.667093 0.978300 -0.000000 -46.922300
-1.093158 17.002336 -0.263876 23.981540 78.261537 35.235353 -9.509161 1.044735 4.980505 -10.819615 -6.524812 -32.141542 -3.090250 -0.125357 12.337102 -0.980031 -8.297414 5.767997 -1.367200 -0.000000 -34.914400 10.394377 -3.907521 1.219298 5.158271 -2.131986 -3.006558 1.430304 -2.248170 31.783983 1.143854 13.096275 0.255226 1.380900 -0.000000 -51.057300
-0.959457 17.014138 -0.235895 24.639794 77.761830 35.733807 -9.481990 1.138373 4.888761 -11.362311 -6.098815 -31.564830 -3.152041 -0.117397 12.635312 -0.987201 -8.466078 5.304048 -1.338400 0.000000 -33.921100 10.589911 -3.937196 1.193989 4.550035 -2.499707 -4.154306 1.111820 -2.457137 34.309029 1.061880 12.973842 2.255932 1.807400 -0.000000 -54.367600
-0.829541 17.025204 -0.207244 25.183399 77.232857 36.141185 -9.445465 1.227531 4.812223 -11.864876 -5.753709 -30.957955 -3.213095 -0.121345 12.823287 -0.989061 -8.564051 4.833710 -1.292501 0.000000 -32.941100 10.789694 -3.939545 1.165161 3.955121 -2.869945 -5.405696 0.788066 -2.645649 36.892234 0.953442 12.771024 4.305376 2.241600 0.000000 -57.046900
-0.703147 17.035592 -0.178345 25.548636 76.676840 36.393060 -9.406481 1.313348 4.743780 -12.330965 -5.434393 -30.345474 -3.272186 -0.133978 12.925261 -0.986371 -8.604056 4.372207 -1.236100 0.000000 -32.029000 10.983892 -3.915080 1.138267 3.403453 -3.220243 -6.736510 0.468698 -2.810955 39.497969 0.818209 12.426663 6.329495 2.644500 0.000001 -58.959100
-0.580056 17.045439 -0.149262 25.752382 76.093588 36.498164 -9.366515 1.397204 4.678044 -12.773379 -5.111643 -29.727741 -3.329075 -0.153958 12.946424 -0.978368 -8.577144 3.937224 -1.171400 0.000000 -31.237799 11.169533 -3.864501 1.112753 2.897836 -3.550472 -8.118828 0.161489 -2.953516 42.089834 0.657838 11.887188 8.261082 2.971800 -0.000000 -60.219499
-0.460019 17.054855 -0.119808 25.840709 75.482845 36.493374 -9.324088 1.480273 4.612473 -13.204904 -4.777198 -29.092990 -3.383733 -0.181238 12.881223 -0.963597 -8.464122 3.543684 -1.098500 -0.000000 -30.614500 11.346967 -3.788962 1.085019 2.428837 -3.872718 -9.528693 -0.127374 -3.076314 44.640018 0.475061 11.103324 10.025975 3.174400 0.000000 -60.935500
-0.342696 17.064125 -0.090249 25.815279 74.847281 36.373046 -9.282001 1.563066 4.543598 -13.624955 -4.412871 -28.438119 -3.435059 -0.214599 12.737281 -0.941761 -8.265601 3.194627 -1.019500 -0.000000 -30.194900 11.512155 -3.691442 1.053613 2.002894 -4.187808 -10.942256 -0.393480 -3.182868 47.121219 0.272912 10.026923 11.550433 3.204800 -0.000001 -61.208100
-0.227769 17.073617 -0.060976 25.653118 74.191295 36.108858 -9.246405 1.645571 4.467611 -14.022835 -3.994038 -27.768504 -3.481427 -0.251878 12.533503 -0.913764 -8.000860 2.883054 -0.937800 -0.000001 -29.995399 11.658475 -3.576266 1.018669 1.637793 -4.490817 -12.339084 -0.634877 -3.276376 49.508369 0.053771 8.621363 12.771487 3.027200 -0.000000 -61.145401
